<?xml version="1.0" encoding="UTF-8" standalone="no"?>
<!-- Created with Inkscape (http://www.inkscape.org/) -->

<svg
   xmlns:dc="http://purl.org/dc/elements/1.1/"
   xmlns:cc="http://creativecommons.org/ns#"
   xmlns:rdf="http://www.w3.org/1999/02/22-rdf-syntax-ns#"
   xmlns:svg="http://www.w3.org/2000/svg"
   xmlns="http://www.w3.org/2000/svg"
   xmlns:sodipodi="http://sodipodi.sourceforge.net/DTD/sodipodi-0.dtd"
   xmlns:inkscape="http://www.inkscape.org/namespaces/inkscape"
   width="55.818295mm"
   height="44.637142mm"
   viewBox="0 0 197.78136 158.1631"
   id="svg2"
   version="1.1"
   inkscape:version="0.91 r13725"
   sodipodi:docname="trace_7_lblue.svg"
   inkscape:export-filename="trace_7_lblue.png"
   inkscape:export-xdpi="45.049747"
   inkscape:export-ydpi="45.049747">
  <defs
     id="defs4">
    <clipPath
       clipPathUnits="userSpaceOnUse"
       id="clipPath4224">
      <rect
         y="-941.92352"
         x="-691.42859"
         height="934.28571"
         width="1548.5715"
         id="rect4226"
         style="opacity:1;fill:#ffffff;fill-opacity:1;stroke:none;stroke-width:0.5;stroke-linecap:square;stroke-linejoin:miter;stroke-miterlimit:4;stroke-dasharray:none;stroke-dashoffset:0;stroke-opacity:1" />
    </clipPath>
    <clipPath
       clipPathUnits="userSpaceOnUse"
       id="clipPath4230">
      <rect
         style="opacity:1;fill:#ffffff;fill-opacity:1;stroke:#000000;stroke-width:0.67285109;stroke-linecap:square;stroke-linejoin:miter;stroke-miterlimit:4;stroke-dasharray:none;stroke-dashoffset:0;stroke-opacity:1"
         id="rect4232"
         width="1825.5415"
         height="1051.2557"
         x="-979.91364"
         y="-590.40851" />
    </clipPath>
    <clipPath
       clipPathUnits="userSpaceOnUse"
       id="clipPath4250">
      <rect
         style="opacity:1;fill:#ffffff;fill-opacity:1;stroke:none;stroke-width:20;stroke-linecap:square;stroke-linejoin:miter;stroke-miterlimit:4;stroke-dasharray:none;stroke-dashoffset:0;stroke-opacity:1"
         id="rect4252"
         width="888.41724"
         height="393.91031"
         x="-277.13654"
         y="-937.26233" />
    </clipPath>
    <clipPath
       clipPathUnits="userSpaceOnUse"
       id="clipPath4262">
      <rect
         style="opacity:1;fill:#ffffff;fill-opacity:1;stroke:none;stroke-width:20;stroke-linecap:square;stroke-linejoin:miter;stroke-miterlimit:4;stroke-dasharray:none;stroke-dashoffset:0;stroke-opacity:1"
         id="rect4264"
         width="1490.625"
         height="696.875"
         x="-640"
         y="-663.26282" />
    </clipPath>
    <clipPath
       clipPathUnits="userSpaceOnUse"
       id="clipPath4341">
      <rect
         style="opacity:1;fill:#ffffff;fill-opacity:1;stroke:none;stroke-width:20;stroke-linecap:square;stroke-linejoin:miter;stroke-miterlimit:4;stroke-dasharray:none;stroke-dashoffset:0;stroke-opacity:1"
         id="rect4343"
         width="1389.6031"
         height="576.05365"
         x="-556.14594"
         y="-610.65808" />
    </clipPath>
  </defs>
  <sodipodi:namedview
     id="base"
     pagecolor="#ffffff"
     bordercolor="#666666"
     borderopacity="1.0"
     inkscape:pageopacity="0.0"
     inkscape:pageshadow="2"
     inkscape:zoom="1.28"
     inkscape:cx="108.20293"
     inkscape:cy="-0.46498801"
     inkscape:document-units="px"
     inkscape:current-layer="g4323"
     showgrid="false"
     inkscape:window-width="1440"
     inkscape:window-height="856"
     inkscape:window-x="33"
     inkscape:window-y="3"
     inkscape:window-maximized="0"
     fit-margin-top="0"
     fit-margin-left="0"
     fit-margin-right="0"
     fit-margin-bottom="0" />
  <metadata
     id="metadata7">
    <rdf:RDF>
      <cc:Work
         rdf:about="">
        <dc:format>image/svg+xml</dc:format>
        <dc:type
           rdf:resource="http://purl.org/dc/dcmitype/StillImage" />
        <dc:title></dc:title>
      </cc:Work>
    </rdf:RDF>
  </metadata>
  <g
     inkscape:label="Layer 1"
     inkscape:groupmode="layer"
     id="layer1"
     transform="translate(470.1948,136.67328)">
    <g
       id="g4266">
      <g
         id="g4323"
         transform="matrix(0.47585183,0,0,0.47585183,-246.49939,17.617716)">
        <path
           transform="matrix(0.31997176,-0.05641966,0.05641966,0.31997176,-298.10711,-27.799339)"
           style="fill:#000000"
           d="m -288.49345,-539.64614 c 0,0 11.82571,-42.43 17.73857,-63.645 5.32812,-19.11699 26.06047,-34.5657 42.44738,-41.0248 9.12137,-3.5953 23.933,-6.3535 34.2816,-6.3839 8.69542,-0.025 9.51816,-0.2899 17.8652,-5.7409 19.64031,-12.826 53.02561,-27.0121 87.829414,-37.3204 30.6569,-9.0801 83.1127003,-19.511 117.1706,-23.2994 7.5625,-0.8413 13.9479,-1.6805 14.1898,-1.8651 0.242,-0.1845 -0.4217,-3.0438 -1.4749,-6.354 -2.9059,-9.134 -4.9651,-23.8851 -4.1572,-29.7799 2.2664,-16.535 12.2432,-29.9745 28.0532,-37.7896 l 9.5061,-4.6989 86.919896,-0.3537 c 56.709,-0.2308 89.0232,0.097 92.9711,0.944 15.0598,3.2298 29.0243,14.3901 35.6221,28.4689 2.9045,6.1977 3.36,8.7444 3.2981,18.4408 -0.063,9.8183 -0.9273,14.834 -4.9562,28.75 -0.6809,2.3518 0.3576,2.632 17.5173,4.7275 43.4573,5.3069 91.4525,15.5512 127.4234,27.198 30.6468,9.9229 48.5486,17.8297 70.8729,31.3029 l 12.0357,7.2638 11.7143,0.2231 c 33.4266,0.6367 59.9563,17.817 74.4205,48.1937 9.98076,19.74654 12.6894,42.34885 17.70936,63.7515 z m 841.39526,-30.8217 c 17.4461,-0.2343 16.8619,0.2794 12.6092,-11.087 -3.6924,-9.869 -14.0464,-20.2229 -23.9153,-23.9154 l -7.2252,-2.7033 -368.6562,0 -368.65622,0 -7.17118,2.6831 c -12.48958,4.673 -24.15995,18.3555 -26.12207,30.6259 l -0.80621,5.0418 387.31538,-0.2198 c 213.0234,-0.1208 394.2059,-0.3122 402.6278,-0.4253 z m -88.1385,-61.4501 c -2.2417,-1.3669 -7.423,-3.8939 -11.5139,-5.6158 -46.5874,-19.6083 -116.2685,-34.5221 -192.5351,-41.2079 -30.9802,-2.7158 -160.4783,-2.7372 -189.999996,-0.031 -68.3666997,6.2663 -126.9098,17.589 -168.3443,32.5592 -14.811604,5.3514 -39.087504,15.1725 -40.301504,16.3046 -0.2865,0.2671 136.1198043,0.4835 303.125,0.481 303.575,-0.01 303.6448,-0.01 299.5698,-2.4899 z m -228.0226,-70.9431 c 0.6129,-1.2031 4.3367,-11.6624 8.2749,-23.2428 4.7545,-13.9805 6.9032,-22.0807 6.3947,-24.1068 -0.9975,-3.9742 -5.1907,-5.4629 -15.3881,-5.4629 l -8.2793,0 2.7357,2.5487 c 1.5046,1.4018 2.7357,3.5017 2.7357,4.6664 0,1.1647 -3.375,11.7898 -7.5,23.6113 -4.125,11.8215 -7.5,21.7798 -7.5,22.1295 0,0.7115 5.7476,1.5416 12.7685,1.8441 3.3041,0.1423 4.965,-0.4309 5.7579,-1.9875 z"
           id="path4286"
           inkscape:connector-curvature="0"
           clip-path="url(#clipPath4224)"
           sodipodi:nodetypes="csscssccccscscscsssscscccssscccsscssccscscccccscsccssscc" />
        <path
           clip-path="url(#clipPath4224)"
           inkscape:connector-curvature="0"
           id="path4242"
           d="m -474.2857,164.95151 0,-53.125 640.00001,0 640,0 0,53.125 0,53.125 -640,0 -640.00001,0 0,-53.125 z m 41.25,6.25 0,-13.125 -3.75,0 -3.75,0 0,13.125 0,13.125 3.75,0 3.75,0 0,-13.125 z m 12.5,-5.625 0,-18.75 -3.75,0 -3.75,0 0,18.75 0,18.75 3.75,0 3.75,0 0,-18.75 z m 11.25,0 0,-18.75 -3.75,0 -3.75,0 0,18.75 0,18.75 3.75,0 3.75,0 0,-18.75 z m 25,5.47424 0,-12.97424 -3.75,0 -3.75,0 0,8.02276 c 0,9.14073 -0.77175,11.97724 -3.25874,11.97724 -1.34324,0 -1.74126,-2.2858 -1.74126,-10 l 0,-10 -3.75,0 -3.75,0 0,10.70717 c 0,14.77195 0.47973,15.42497 11.25732,15.32356 l 8.74268,-0.0823 0,-12.97422 z m 15.21407,11.20702 c 4.25158,-3.84762 2.52451,-10.57491 -3.59389,-13.99895 -2.87421,-1.60849 -1.18352,-5.16096 2.05336,-4.3145 2.11718,0.55366 2.57646,0.0907 2.57646,-2.59702 0,-2.90472 -0.48967,-3.27079 -4.375,-3.27079 -8.14405,0 -12.50034,8.6988 -6.73551,13.44974 7.1328,5.87831 7.50754,8.58028 0.99151,7.14912 -3.27568,-0.71946 -3.631,-0.48197 -3.631,2.42681 0,2.95044 0.4429,3.22433 5.21407,3.22433 3.0976,0 6.14197,-0.83974 7.5,-2.06874 z m 18.53593,-1.05626 c 0,-1.94445 -0.70833,-3.125 -1.875,-3.125 -1.45833,0 -1.875,-1.66666 -1.875,-7.5 0,-6.66666 0.27778,-7.5 2.5,-7.5 1.66667,0 2.5,-0.83334 2.5,-2.5 0,-1.66666 -0.83333,-2.5 -2.5,-2.5 -1.85059,0 -2.5,-0.83334 -2.5,-3.20802 0,-2.76223 -0.4777,-3.15307 -3.4375,-2.8125 -2.46126,0.28319 -3.55094,1.19426 -3.83694,3.20802 -0.21969,1.54687 -1.20407,2.8125 -2.1875,2.8125 -0.98343,0 -1.78806,1.125 -1.78806,2.5 0,1.38889 0.83333,2.5 1.875,2.5 1.47628,0 1.875,1.74524 1.875,8.20717 0,10.55064 1.32206,13.04283 6.91898,13.04283 3.78642,0 4.33102,-0.39295 4.33102,-3.125 z m 12.51914,-4.6875 c 0.0205,-8.36845 0.61782,-10.03808 4.04336,-11.30195 3.02599,-1.11645 2.97326,-7.13555 -0.0625,-7.13555 -1.2375,0 -2.925,0.675 -3.75,1.5 -1.16666,1.16666 -1.5,1.16666 -1.5,0 0,-0.825 -1.40625,-1.5 -3.125,-1.5 l -3.125,0 0,13.125 0,13.125 3.75,0 3.75,0 0.0191,-7.8125 z m 24.98086,-2.9529 c 0,-8.81794 -0.39741,-10.88201 -2.5,-12.9846 -2.63864,-2.63864 -10.3778,-3.40974 -13.61965,-1.35701 -2.69066,1.70371 -0.65234,5.5351 2.5054,4.70932 2.97826,-0.77882 6.11425,0.13486 6.11425,1.78143 0,0.61394 -1.04914,1.11626 -2.33142,1.11626 -1.28229,0 -3.81354,1.16583 -5.625,2.59073 -2.50567,1.97095 -3.29358,3.70535 -3.29358,7.24999 0,2.5626 0.63251,5.29179 1.40557,6.06486 0.77308,0.77307 4.99183,1.38488 9.375,1.3596 l 7.96943,-0.046 0,-10.4846 z m -12.01419,3.97842 c -0.79434,-2.06999 1.43768,-5.71302 3.50028,-5.71302 1.73445,0 0.65961,6.59331 -1.17293,7.19505 -0.85901,0.28206 -1.90632,-0.38485 -2.32735,-1.48203 z m 29.51419,3.66198 c 0,-1.94445 -0.70834,-3.125 -1.875,-3.125 -1.45834,0 -1.875,-1.66666 -1.875,-7.5 0,-6.66666 0.27778,-7.5 2.5,-7.5 1.66666,0 2.5,-0.83334 2.5,-2.5 0,-1.66666 -0.83334,-2.5 -2.5,-2.5 -1.85059,0 -2.5,-0.83334 -2.5,-3.20802 0,-2.76223 -0.4777,-3.15307 -3.4375,-2.8125 -2.46126,0.28319 -3.55094,1.19426 -3.83694,3.20802 -0.21968,1.54687 -1.20406,2.8125 -2.1875,2.8125 -0.98344,0 -1.78806,1.125 -1.78806,2.5 0,1.38889 0.83334,2.5 1.875,2.5 1.47629,0 1.875,1.74524 1.875,8.20717 0,10.55064 1.32206,13.04283 6.91897,13.04283 3.78643,0 4.33103,-0.39295 4.33103,-3.125 z m 12.5,-10 0,-13.125 -3.75,0 -3.75,0 0,13.125 0,13.125 3.75,0 3.75,0 0,-13.125 z m 20.02249,9.97606 c 3.93708,-4.19083 4.14687,-14.01186 0.40681,-19.04349 -5.17727,-6.96513 -15.38261,-4.05693 -17.36024,4.94713 -1.12806,5.13604 0.3618,11.92616 3.25066,14.81503 3.5246,3.52459 10.03732,3.18302 13.70277,-0.71867 z m -8.57239,-3.40096 c -2.01865,-2.01865 -1.81411,-9.97653 0.33152,-12.89869 1.7125,-2.33228 1.83694,-2.28145 3.20793,1.31058 1.43446,3.75837 0.77676,11.26686 -1.08786,12.41926 -0.55082,0.34043 -1.65403,-0.0336 -2.45159,-0.83115 z m 23.80983,-3.1376 c 0.28698,-7.61553 0.7661,-9.6875 2.24007,-9.6875 1.47397,0 1.95309,2.07197 2.24007,9.6875 l 0.36509,9.6875 3.69741,0 3.69743,0 0,-10.34686 c 0,-11.94515 -1.82202,-15.90314 -7.32088,-15.90314 -1.88602,0 -4.10412,0.675 -4.92912,1.5 -1.16666,1.16666 -1.5,1.16666 -1.5,0 0,-0.825 -1.40625,-1.5 -3.125,-1.5 l -3.125,0 0,13.125 0,13.125 3.69743,0 3.69741,0 0.36509,-9.6875 z m 28.70415,7.61876 c 4.25157,-3.84762 2.5245,-10.57491 -3.5939,-13.99895 -2.87421,-1.60849 -1.18352,-5.16096 2.05336,-4.3145 2.11717,0.55366 2.57646,0.0907 2.57646,-2.59702 0,-2.90472 -0.48966,-3.27079 -4.375,-3.27079 -8.14405,0 -12.50034,8.6988 -6.73551,13.44974 7.13281,5.87831 7.50753,8.58028 0.99151,7.14912 -3.27568,-0.71946 -3.631,-0.48197 -3.631,2.42681 0,2.95044 0.4429,3.22433 5.21407,3.22433 3.0976,0 6.14197,-0.83974 7.5,-2.06874 z m 29.80841,-1.0802 c 3.93709,-4.19083 4.14687,-14.01186 0.40681,-19.04349 -5.17727,-6.96513 -15.38261,-4.05693 -17.36024,4.94713 -1.12806,5.13604 0.3618,11.92616 3.25067,14.81503 3.5246,3.52459 10.03731,3.18302 13.70276,-0.71867 z m -8.70978,-4.23387 c -1.8525,-3.46145 -1.62916,-9.20838 0.46892,-12.06578 1.7125,-2.33228 1.83693,-2.28145 3.20792,1.31058 1.48178,3.88232 0.75699,11.27908 -1.22525,12.50417 -0.62637,0.38713 -1.72959,-0.39991 -2.45159,-1.74897 z m 24.93729,-3.24219 c 0,-8.61111 0.35539,-10.625 1.875,-10.625 1.04166,0 1.875,-1.11111 1.875,-2.5 0,-1.38889 -0.83334,-2.5 -1.875,-2.5 -2.60424,0 -2.35816,-3.6502 0.3125,-4.63555 5.59081,-2.06276 5.37571,-6.61445 -0.3125,-6.61445 -5.20952,0 -9.375,3.61007 -9.375,8.125 0,1.94445 -0.70834,3.125 -1.875,3.125 -1.04166,0 -1.875,1.11111 -1.875,2.5 0,1.38889 0.83334,2.5 1.875,2.5 1.51961,0 1.875,2.01389 1.875,10.625 l 0,10.625 3.75,0 3.75,0 0,-10.625 z m 14.39401,8.06501 c 1.0407,-3.27897 -1.5485,-6.4186 -4.8969,-5.93783 -2.67897,0.38464 -3.98041,3.53388 -2.76706,6.69583 1.07566,2.80324 6.71056,2.24593 7.66396,-0.758 z m 19.1304,-0.13936 c -0.23,-1.55459 -1.4451,-2.85029 -2.8652,-3.05524 -7.374,-1.06429 -7.365,-14.24541 0.01,-14.24541 2.4531,0 3.0811,-0.6369 3.0811,-3.125 0,-2.69801 -0.5551,-3.1212 -4.0625,-3.0972 -9.6501,0.066 -15.2854,11.60569 -10.3388,21.17134 2.1697,4.19586 3.4049,4.81998 9.8007,4.95217 4.2058,0.0869 4.7269,-0.2228 4.375,-2.60066 z m 18.9981,-0.44959 c 3.9371,-4.19084 4.1469,-14.01186 0.4068,-19.04349 -5.1773,-6.96513 -15.3826,-4.05693 -17.3602,4.94713 -1.1281,5.13604 0.3618,11.92616 3.2506,14.81502 3.5246,3.5246 10.0373,3.18303 13.7028,-0.71866 z m -8.5724,-3.40096 c -2.0187,-2.01865 -1.8141,-9.97653 0.3315,-12.89869 1.7125,-2.33228 1.837,-2.28145 3.2079,1.31058 1.4345,3.75837 0.7768,11.26686 -1.0878,12.41926 -0.5508,0.34042 -1.654,-0.0336 -2.4516,-0.83115 z m 23.5499,-2.75133 c 0,-9.11977 1.5796,-12.91354 3.8706,-9.29642 0.6001,0.94746 1.0997,5.51952 1.1103,10.16015 l 0.019,8.4375 3.750004,0 3.75,0 0,-10 c 0,-8.05555 0.3645,-10 1.875,-10 1.5104,0 1.875,1.94445 1.875,10 l 0,10 3.75,0 3.75,0 0,-11.16071 c 0,-8.47944 -0.4719,-11.63263 -1.9643,-13.125 -2.3313,-2.33132 -6.9323,-2.56773 -9.0357,-0.46429 -1.1667,1.16666 -1.8334,1.16666 -3,0 -0.825,-0.825 -2.9625,-1.5 -4.750004,-1.5 -1.7875,0 -3.925,0.675 -4.75,1.5 -1.1667,1.16666 -1.5,1.16666 -1.5,0 0,-0.825 -1.4063,-1.5 -3.125,-1.5 l -3.125,0 0,13.125 0,13.125 3.75,0 3.75,0 0,-9.30123 z m 594.2785,1.95735 c 0.3718,-0.60162 -1.546,-1.44918 -4.2618,-1.88346 -5.4595,-0.87301 -7.5167,-3.43229 -7.5167,-9.3512 0,-9.47511 12.9783,-11.90163 16.3417,-3.05536 1.3047,3.43174 0.4995,7.8839 -1.4259,7.8839 -0.6412,0 -1.1658,-2.25 -1.1658,-5 0,-2.75 -0.4219,-5.00767 -0.9375,-5.01706 -0.5156,-0.01 -2.1193,-0.33433 -3.5637,-0.72206 -3.4599,-0.92883 -6.7488,2.44611 -6.7488,6.92535 0,4.83617 2.1418,6.18418 9.402,5.91742 6.1073,-0.2244 6.2305,-0.30737 6.6276,-4.46411 0.6276,-6.57015 -0.7291,-9.91994 -4.889,-12.07109 -10.3211,-5.33725 -20.8555,7.14376 -14.1319,16.74317 2.9471,4.20754 10.6179,6.76734 12.2698,4.09451 z m -6.263,-8.11572 c -1.2575,-3.27687 0.028,-6.4154 2.6266,-6.4154 1.9229,0 2.4829,0.84191 2.4829,3.73288 0,4.08967 -3.8033,6.08643 -5.1095,2.68252 z m -455.515496,5.4596 c 0,-0.6875 -0.8438,-1.25 -1.875,-1.25 -1.4744,0 -1.875,-1.73611 -1.875,-8.125 0,-8.46105 -0.4324,-9.1406 -4.0625,-6.38494 -2.6829,2.0366 -2.8002,3.25994 -0.3125,3.25994 1.3889,0 1.875,1.45834 1.875,5.625 0,4.16666 -0.4861,5.625 -1.875,5.625 -1.0313,0 -1.875,0.5625 -1.875,1.25 0,0.6875 2.25,1.25 5,1.25 2.75,0 5,-0.5625 5,-1.25 z m 33.5,-0.25 c 1.9673,-1.96733 1.927,-6.88511 -0.062,-7.61459 -1.25,-0.45832 -1.25,-0.90416 0,-2.22916 2.3791,-2.52183 1.8867,-4.63618 -1.6137,-6.92975 -2.6056,-1.70725 -3.7565,-1.81673 -6.4064,-0.60938 -2.8098,1.28025 -3.1391,2.03225 -2.5311,5.77942 0.3845,2.36921 0.1736,4.63241 -0.4686,5.02932 -1.6432,1.01554 -1.4524,4.78943 0.3323,6.57414 0.825,0.825 3.2437,1.5 5.375,1.5 2.1312,0 4.55,-0.675 5.375,-1.5 z m -7.7351,-1.66365 c -2.2895,-2.28949 -1.3341,-5.58635 1.6188,-5.58635 2.1823,0 5.1163,2.26865 5.1163,3.95602 0,0.52582 -1.0859,1.53719 -2.4132,2.24752 -1.8129,0.97026 -2.888,0.81673 -4.3219,-0.61719 z m 0.6154,-9.22934 c -2.3623,-1.49581 -0.7166,-5.40209 2.0534,-4.87412 2.5841,0.49252 3.8212,6.02676 1.3407,5.99797 -0.9072,-0.01 -2.4345,-0.51626 -3.3941,-1.12385 z m 24.229,3.67419 c 2.4149,-4.79534 4.3907,-9.01409 4.3907,-9.375 0,-0.36091 -3.0938,-0.6562 -6.875,-0.6562 -3.7813,0 -6.875,0.5625 -6.875,1.25 0,0.6875 2.3016,1.25 5.1147,1.25 l 5.1147,0 -4.466,8.125 c -3.2709,5.95062 -3.9749,8.125 -2.6305,8.125 1.0191,0 3.7888,-3.87846 6.2264,-8.7188 z m 19.043,0.51699 c 2.2151,-4.08275 4.043196,-8.12632 4.062496,-8.98569 0.024,-1.06684 -2.169096,-1.5625 -6.913596,-1.5625 -4.3142,0 -6.6558,0.47392 -6.1762,1.25 0.4249,0.6875 2.7081,1.25 5.0738,1.25 2.3656,0 4.3012,0.37639 4.3012,0.83642 0,0.46004 -1.6875,3.82653 -3.75,7.48107 -4.1757,7.39898 -4.4513,8.36234 -2.1875,7.64736 0.8594,-0.27141 3.3748,-3.83391 5.5898,-7.91666 z m 37.847696,6.95181 c 0,-0.6875 -2.027,-1.25 -4.5045,-1.25 l -4.5045,0 3.8795,-4.4185 c 4.5291,-5.15831 5.0302,-9.87768 1.2631,-11.89381 -2.9465,-1.57691 -8.6336,-0.60753 -8.6336,1.47164 0,0.81087 1.2062,1.05895 2.982,0.61326 3.8296,-0.96116 6.454,1.86654 4.7195,5.08501 -0.6721,1.24706 -2.6799,3.63107 -4.4617,5.29779 -5.0062,4.6826 -4.2176,6.34461 3.0102,6.34461 3.4375,0 6.25,-0.5625 6.25,-1.25 z m 17.5,-1.14584 c 0,-1.3177 0.7031,-2.72395 1.5625,-3.125 1.25,-0.58332 1.25,-0.875 0,-1.45832 -0.9041,-0.42192 -1.5625,-3.05557 -1.5625,-6.25 0,-7.12274 -2.1172,-7.20076 -8.0276,-0.29584 -5.7008,6.6601 -5.7221,8.525 -0.097,8.525 3.5417,0 4.375,0.47619 4.375,2.5 0,1.38889 0.8334,2.5 1.875,2.5 1.0313,0 1.875,-1.07812 1.875,-2.39584 z m -7.5,-8.22916 c 1.6147,-1.71875 3.119,-3.125 3.3429,-3.125 0.2239,0 0.4071,1.40625 0.4071,3.125 0,2.55431 -0.6105,3.125 -3.3429,3.125 l -3.3429,0 2.9358,-3.125 z m 27.5623,8.00857 c 2.2389,-4.1835 0.4443,-8.59474 -3.8456,-9.45273 -2.5365,-0.50729 -3.7167,-1.48759 -3.7167,-3.08709 0,-1.84524 0.9305,-2.34375 4.375,-2.34375 2.4062,0 4.375,-0.5625 4.375,-1.25 0,-0.6875 -2.5313,-1.25 -5.625,-1.25 l -5.625,0 0,5 c 0,4.43134 0.338,5 2.9719,5 3.669,0 6.0974,2.71332 4.9964,5.58251 -0.6125,1.59611 -1.9051,2.02328 -5.0215,1.65944 -2.8603,-0.33391 -4.1968,0.0272 -4.1968,1.13405 0,1.05894 1.7244,1.624 4.956,1.624 3.7502,0 5.2967,-0.63658 6.3563,-2.61643 z m 33.4377,1.11643 c 1.9673,-1.96733 1.927,-6.88511 -0.062,-7.61459 -1.25,-0.45832 -1.25,-0.90416 0,-2.22916 2.3791,-2.52183 1.8867,-4.63618 -1.6137,-6.92975 -2.6056,-1.70725 -3.7565,-1.81673 -6.4064,-0.60938 -2.8098,1.28025 -3.1391,2.03225 -2.5311,5.77942 0.3845,2.36921 0.1736,4.63241 -0.4686,5.02932 -1.6432,1.01554 -1.4524,4.78943 0.3323,6.57414 0.825,0.825 3.2437,1.5 5.375,1.5 2.1312,0 4.55,-0.675 5.375,-1.5 z m -7.7351,-1.66365 c -2.2895,-2.28949 -1.3341,-5.58635 1.6188,-5.58635 2.1823,0 5.1163,2.26865 5.1163,3.95602 0,0.52582 -1.0859,1.53719 -2.4132,2.24752 -1.8129,0.97026 -2.888,0.81673 -4.3219,-0.61719 z m 0.6154,-9.22934 c -2.3623,-1.49581 -0.7166,-5.40209 2.0534,-4.87412 2.5841,0.49252 3.8212,6.02676 1.3407,5.99797 -0.9072,-0.01 -2.4345,-0.51626 -3.3941,-1.12385 z m 25.8697,10.89299 c 0.825,-0.825 1.5,-2.9625 1.5,-4.75 0,-4.04475 -2.1053,-6.25 -5.9667,-6.25 -2.1538,0 -2.8503,-0.59936 -2.542,-2.1875 0.2335,-1.20313 1.2591,-2.26324 2.2791,-2.35581 1.02,-0.0926 2.839,-0.2332 4.0421,-0.3125 4.8293,-0.31832 1.8056,-2.64419 -3.4375,-2.64419 l -5.625,0 0,5 c 0,4.34618 0.3678,5.0025 2.8125,5.01914 4.027,0.0274 6.2579,1.7889 5.7063,4.50565 -0.3709,1.82683 -1.5118,2.31846 -5.123,2.20763 -4.4382,-0.13621 -5.6251,0.62164 -3.8125,2.43424 1.3984,1.3984 8.572,0.928 10.1667,-0.66666 z m 20.206,-0.91783 c 2.7483,-5.13518 -0.034,-10.08217 -5.6703,-10.08217 -1.6696,0 -3.0357,-0.54271 -3.0357,-1.20603 0,-1.67333 4.7824,-4.07602 6.2758,-3.15301 0.6733,0.41613 1.2242,-0.18135 1.2242,-1.3277 0,-1.64474 -0.7249,-1.90655 -3.4375,-1.24151 -5.0225,1.23135 -6.7644,3.49473 -7.4636,9.69808 -0.4648,4.12419 -0.089,6.06097 1.4783,7.62883 2.9038,2.90383 9.0025,2.72223 10.6288,-0.31649 z m -8.7911,-2.74113 c -1.1099,-2.07399 -1.0509,-2.89479 0.2685,-3.73087 3.7266,-2.36143 8.057,0.50584 6.5794,4.35639 -1.1086,2.88903 -5.1653,2.51846 -6.8479,-0.62552 z m 27.3351,3.65896 c 2.0925,-2.09246 1.8739,-7.88361 -0.3678,-9.74404 -1.0273,-0.85258 -3.2773,-1.28071 -5,-0.9514 -1.7227,0.32931 -3.1322,0.14617 -3.1322,-0.40702 0,-1.81988 5.2473,-4.72419 7.1891,-3.97905 1.2631,0.4847 1.7049,0.13808 1.3154,-1.0318 -0.9246,-2.77639 -4.002,-2.71344 -7.6505,0.15649 -2.7936,2.19748 -3.354,3.62556 -3.354,8.54754 0,6.69194 1.5555,8.90928 6.25,8.90928 1.7875,0 3.925,-0.675 4.75,-1.5 z m -8.0143,-2.78733 c -1.2446,-3.24333 0.4998,-5.92398 3.5712,-5.48785 2.0659,0.29337 2.8181,1.23427 2.8181,3.52518 0,2.29091 -0.7522,3.23181 -2.8181,3.52517 -1.6903,0.24003 -3.1195,-0.38525 -3.5712,-1.5625 z m 377.9518,0.74874 c 3.6889,-4.57837 0.2899,-12.71141 -5.3125,-12.71141 -6.8769,0 -9.4482,11.48254 -3.2584,14.55105 3.3554,1.66344 6.2487,1.04243 8.5709,-1.83964 z m -9.1783,-3.35265 c -1.4006,-5.58051 4.3112,-9.36555 6.8826,-4.56085 1.941,3.62673 0.2802,7.70209 -3.1388,7.70209 -2.114,0 -3.1798,-0.8943 -3.7438,-3.14124 z m -240.896,3.59634 c 1.0447,-2.72261 -1.0727,-5.8693 -4.4928,-6.67668 -3.8839,-0.91687 -2.7267,-3.19336 1.5058,-2.96218 4.5486,0.24845 3.7707,-2.54804 -0.8607,-3.09406 -7.5761,-0.8932 -9.6418,6.91703 -2.328,8.80218 4.1485,1.0693 5.3025,2.83109 2.5,3.817 -0.8594,0.30233 -2.8281,0.0819 -4.375,-0.4899 -2.1155,-0.78195 -2.8125,-0.58257 -2.8125,0.80448 0,2.72946 9.8083,2.54812 10.8632,-0.20084 z m 16.6376,0.4824 c 5e-4,-0.96532 -1.7464,-1.5625 -4.5708,-1.5625 -2.5395,0 -4.8087,-0.69455 -5.105,-1.5625 -0.3693,-1.08198 1.0364,-1.5625 4.5708,-1.5625 4.4928,0 5.1042,-0.34439 5.1042,-2.875 0,-5.5785 -6.4674,-7.97909 -10.5357,-3.91071 -2.319,2.31897 -2.6038,9.39618 -0.4643,11.53571 2.0246,2.0246 10.9997,1.9736 11.0008,-0.0625 z m -9.6883,-8.75 c 0.2865,-0.85938 1.8333,-1.5625 3.4375,-1.5625 1.6042,0 3.151,0.70312 3.4375,1.5625 0.3436,1.0307 -0.8264,1.5625 -3.4375,1.5625 -2.6111,0 -3.7811,-0.5318 -3.4375,-1.5625 z m 17.4281,5 c 0.3196,-4.41628 0.8589,-5.37989 3.1969,-5.71194 4.5846,-0.65111 3.3148,-3.47556 -1.5625,-3.47556 l -4.375,0 0,7.25 c 0,8.34681 2.1661,9.87815 2.7406,1.9375 z m 19.5859,-1.67373 c 3.0987,-8.09745 3.1442,-8.379 1.2506,-7.74781 -0.7826,0.26086 -2.3665,2.88765 -3.5197,5.83731 l -2.0969,5.363 -1.5147,-5.05566 c -1.4308,-4.77561 -3.415,-7.35809 -4.6808,-6.09224 -1.0689,1.06884 4.8281,14.68163 6.36,14.68163 0.8404,0 2.7311,-3.1438 4.2015,-6.98623 z m 10.1735,-0.51377 c 0,-4.16666 -0.5556,-7.5 -1.25,-7.5 -0.6945,0 -1.25,3.33334 -1.25,7.5 0,4.16666 0.5555,7.5 1.25,7.5 0.6944,0 1.25,-3.33334 1.25,-7.5 z m 16.25,5.92541 c 0,-0.94559 -1.6228,-1.56975 -4.0625,-1.5625 -3.555,0.01 -4.1141,-0.43946 -4.4751,-3.60227 -0.4807,-4.21133 1.6643,-6.07983 5.8474,-5.09357 2.0537,0.4842 2.7754,0.20647 2.4036,-0.92505 -0.901,-2.74258 -6.8249,-2.63056 -9.6377,0.18226 -5.0526,5.05262 -1.6905,12.57572 5.6202,12.57572 2.6276,0 4.3041,-0.61334 4.3041,-1.57459 z m 16.2508,0.0125 c 5e-4,-0.96532 -1.7464,-1.5625 -4.5708,-1.5625 -2.5395,0 -4.8087,-0.69455 -5.105,-1.5625 -0.3693,-1.08197 1.0364,-1.5625 4.5708,-1.5625 4.6227,0 5.1042,-0.29731 5.1042,-3.1518 0,-6.97719 -11.4774,-6.98291 -13.2283,-0.006 -1.3228,5.27058 2.3086,9.4084 8.2571,9.4084 3.1432,0 4.9715,-0.57456 4.972,-1.5625 z m -9.6946,-8.75 c 0.7697,-2.33715 5.5108,-2.6189 6.3705,-0.37859 0.5731,1.49349 -0.1349,1.94109 -3.0701,1.94109 -2.4931,0 -3.6366,-0.54141 -3.3004,-1.5625 z m 44.6938,2.81209 c 0,-4.16666 -0.5556,-7.5 -1.25,-7.5 -0.6945,0 -1.25,3.33334 -1.25,7.5 0,4.16666 0.5555,7.5 1.25,7.5 0.6944,0 1.25,-3.33334 1.25,-7.5 z m 8.75,-2.5 c 0,-5.83334 -0.5208,-10 -1.25,-10 -0.7292,0 -1.25,4.16666 -1.25,10 0,5.83334 0.5208,10 1.25,10 0.7292,0 1.25,-4.16666 1.25,-10 z m 8.75,0 c 0,-5.83334 -0.5208,-10 -1.25,-10 -0.7292,0 -1.25,4.16666 -1.25,10 0,5.83334 0.5208,10 1.25,10 0.7292,0 1.25,-4.16666 1.25,-10 z m 17.5,2.29509 c 0,-8.72643 -2.2013,-9.81552 -2.744,-1.35759 -0.322,5.01717 -0.8058,5.99796 -3.1219,6.32755 -2.4531,0.3491 -2.7811,-0.24135 -3.125,-5.625 -0.4779,-7.48307 -2.748,-7.90629 -3.273,-0.61018 -0.4974,6.91262 1.2617,8.9914 7.4049,8.75069 l 4.859,-0.1904 0,-7.29507 z m 16.0219,3.62805 c 0.3422,-2.97597 -0.1317,-3.5576 -3.4375,-4.21875 -2.2342,-0.44685 -3.8344,-1.54939 -3.8344,-2.64189 0,-1.42754 0.9189,-1.69123 3.8504,-1.10491 2.7639,0.55277 3.7068,0.33231 3.3413,-0.78125 -0.7703,-2.3466 -7.7645,-2.62351 -9.6255,-0.38109 -2.2418,2.7012 -0.7548,5.59474 3.6673,7.13631 2.0716,0.72215 3.7665,1.7736 3.7665,2.33655 0,1.66629 -2.9194,2.19895 -5.9375,1.08335 -2.1455,-0.79306 -2.8125,-0.58524 -2.8125,0.87635 0,1.481 1.206,1.82868 5.3125,1.53157 4.7595,-0.34437 5.3538,-0.74368 5.7094,-3.83624 z m 12.7281,2.82686 c 0,-0.6875 -1.125,-1.25 -2.5,-1.25 -2.0833,0 -2.5,-0.83334 -2.5,-5 0,-4.16666 0.4167,-5 2.5,-5 1.375,0 2.5,-0.5625 2.5,-1.25 0,-0.6875 -1.125,-1.25 -2.5,-1.25 -1.3889,0 -2.5,-0.83334 -2.5,-1.875 0,-2.63864 -2.465,-2.34919 -2.6613,0.3125 -0.2836,3.84612 0.4013,14.6541 0.9902,15.625 0.8512,1.40334 6.6711,1.13071 6.6711,-0.3125 z m 6.4906,-4.0625 c 0.3196,-4.41628 0.8589,-5.37989 3.1969,-5.71194 4.5846,-0.65111 3.3148,-3.47556 -1.5625,-3.47556 l -4.375,0 0,7.25 c 0,8.34681 2.1661,9.87815 2.7406,1.9375 z m 21.0094,-0.98711 c 0,-3.60438 -0.6991,-6.47445 -1.7994,-7.38765 -2.217,-1.8399 -8.4478,-1.25131 -9.1422,0.8636 -0.3623,1.10367 0.5581,1.33787 3.1895,0.81157 2.1536,-0.43072 4.0579,-0.15882 4.5583,0.65084 0.5319,0.86063 -0.5906,1.68064 -2.9453,2.15158 -4.7547,0.95092 -6.8092,3.32817 -5.7528,6.65651 0.6752,2.12737 1.7629,2.53095 6.3533,2.35732 l 5.5386,-0.2095 0,-5.89427 z m -9.3717,2.55492 c -0.8625,-1.39551 5.1952,-4.59842 6.4064,-3.38727 0.4258,0.42577 0.4411,1.64215 0.034,2.70305 -0.8247,2.14923 -5.2447,2.61882 -6.4404,0.68422 z m 23.1217,2.49469 c 0,-0.6875 -1.125,-1.25 -2.5,-1.25 -2.0833,0 -2.5,-0.83334 -2.5,-5 0,-4.16666 0.4167,-5 2.5,-5 1.375,0 2.5,-0.5625 2.5,-1.25 0,-0.6875 -1.125,-1.25 -2.5,-1.25 -1.3889,0 -2.5,-0.83334 -2.5,-1.875 0,-2.63864 -2.465,-2.34919 -2.6613,0.3125 -0.2836,3.84612 0.4013,14.6541 0.9902,15.625 0.8512,1.40334 6.6711,1.13071 6.6711,-0.3125 z m 6.25,-6.25 c 0,-4.16666 -0.5556,-7.5 -1.25,-7.5 -0.6945,0 -1.25,3.33334 -1.25,7.5 0,4.16666 0.5555,7.5 1.25,7.5 0.6944,0 1.25,-3.33334 1.25,-7.5 z m 26.25,2.00874 c 0,-3.8542 0.5894,-5.71747 1.9772,-6.25 3.7361,-1.43368 4.2728,-0.74397 4.2728,5.49126 0,4.72222 0.4583,6.25 1.875,6.25 1.3592,0 1.875,-1.39803 1.875,-5.08218 0,-7.75155 -1.6205,-9.82043 -7.5084,-9.58565 l -4.9916,0.19907 0,7.23437 c 0,3.98959 0.5606,7.23439 1.25,7.23439 0.6875,0 1.25,-2.47107 1.25,-5.49126 z m 24.8685,3.7747 c 2.1322,-2.56917 0.2823,-5.81578 -3.7763,-6.6275 -2.0404,-0.40809 -3.5922,-1.52841 -3.5922,-2.59344 0,-1.41666 0.9167,-1.69166 3.75,-1.125 2.1793,0.43588 3.75,0.22311 3.75,-0.50798 0,-3.47246 -9.1339,-2.73965 -10.5087,0.84313 -0.9812,2.5569 1.3318,5.47735 4.338,5.47735 2.8233,0 4.3782,2.29245 2.696,3.97471 -0.8425,0.84251 -2.1606,0.77323 -3.9982,-0.21019 -2.9502,-1.57889 -4.5384,-1.00761 -3.2035,1.15232 1.1873,1.92113 8.864,1.64202 10.5449,-0.3834 z m 16.1315,0.21656 c 2.1663,-2.16633 1.8426,-8.54959 -0.5687,-11.21408 -6.0052,-6.63563 -14.7892,2.07134 -10.3873,10.29625 1.4832,2.77153 8.5134,3.36047 10.956,0.91783 z m -8.915,-3.70209 c -0.8417,-3.21836 1.0763,-7.29791 3.4309,-7.29791 2.7974,0 4.8203,3.49046 3.9749,6.85876 -1.0329,4.11541 -6.3618,4.4314 -7.4058,0.43915 z m 17.915,-1.04791 c 0,-4.72223 0.4583,-6.25 1.875,-6.25 2.5957,0 2.3601,-2.18716 -0.3125,-2.90085 -1.8526,-0.49471 -1.7569,-0.72246 0.625,-1.48744 3.781,-1.21435 3.5716,-3.11171 -0.3434,-3.11171 -4.0489,0 -5.2646,3.3782 -4.6108,12.8125 0.6116,8.82559 2.7667,9.55584 2.7667,0.9375 z m 12.5,4.375 c 0,-1.03125 -0.8438,-1.875 -1.875,-1.875 -1.0313,0 -1.875,0.84375 -1.875,1.875 0,1.03125 0.8437,1.875 1.875,1.875 1.0312,0 1.875,-0.84375 1.875,-1.875 z m 17.1245,-0.101 c 0.2746,-0.83781 -0.9521,-1.14621 -3.2297,-0.81194 -4.6137,0.67715 -7.3068,-3.17231 -5.1019,-7.29234 1.0983,-2.05205 2.1308,-2.41553 5.044,-1.77568 4.6506,1.02143 4.977,-1.51669 0.3446,-2.67934 -6.2997,-1.58114 -11.0443,5.07764 -8.1477,11.4349 1.2625,2.77095 2.157,3.19322 6.0645,2.86286 2.5209,-0.21312 4.7827,-0.99543 5.0262,-1.73846 z m 15.1255,0.476 c 2.1663,-2.16633 1.8426,-8.54959 -0.5687,-11.21408 -6.0052,-6.63563 -14.7892,2.07134 -10.3873,10.29625 1.4832,2.77153 8.5134,3.36047 10.956,0.91783 z m -8.915,-3.70209 c -0.8417,-3.21836 1.0763,-7.29791 3.4309,-7.29791 2.7974,0 4.8203,3.49046 3.9749,6.85876 -1.0329,4.11541 -6.3618,4.4314 -7.4058,0.43915 z m 17.915,-0.28917 c 0,-3.86652 0.5881,-5.71697 1.9878,-6.25406 3.2123,-1.23268 4.2622,0.29307 4.2622,6.19409 0,7.01367 2.2258,7.31094 2.7406,0.36603 0.2454,-3.31071 1.188,-5.68309 2.6075,-6.5625 2.9298,-1.81517 4.6069,0.74071 4.6328,7.0602 0.01,2.57812 0.5816,4.6875 1.2691,4.6875 1.8346,0 1.5502,-12.1587 -0.3125,-13.36098 -0.8594,-0.55468 -5.6406,-1.06563 -10.625,-1.13545 l -9.0625,-0.12693 0,7.31167 c 0,4.04113 0.5591,7.31169 1.25,7.31169 0.6875,0 1.25,-2.47107 1.25,-5.49126 z M 41.964314,166.82651 c 0,-0.6875 -1.6875,-1.25 -3.75,-1.25 -2.0625,0 -3.75,0.5625 -3.75,1.25 0,0.6875 1.6875,1.25 3.75,1.25 2.0625,0 3.75,-0.5625 3.75,-1.25 z m 72.499996,0 c 0,-0.6875 -1.6875,-1.25 -3.75,-1.25 -2.0625,0 -3.75,0.5625 -3.75,1.25 0,0.6875 1.6875,1.25 3.75,1.25 2.0625,0 3.75,-0.5625 3.75,-1.25 z m 72.5,0 c 0,-0.6875 -1.6875,-1.25 -3.75,-1.25 -2.0625,0 -3.75,0.5625 -3.75,1.25 0,0.6875 1.6875,1.25 3.75,1.25 2.0625,0 3.75,-0.5625 3.75,-1.25 z m 250,-10 c 0,-0.6875 -0.8438,-1.25 -1.875,-1.25 -1.0313,0 -1.875,0.5625 -1.875,1.25 0,0.6875 0.8437,1.25 1.875,1.25 1.0312,0 1.875,-0.5625 1.875,-1.25 z m 68.75,0 c 0,-0.6875 -0.8438,-1.25 -1.875,-1.25 -1.0313,0 -1.875,0.5625 -1.875,1.25 0,0.6875 0.8437,1.25 1.875,1.25 1.0312,0 1.875,-0.5625 1.875,-1.25 z m 111.25,0 c 0,-0.6875 -0.8438,-1.25 -1.875,-1.25 -1.0313,0 -1.875,0.5625 -1.875,1.25 0,0.6875 0.8437,1.25 1.875,1.25 1.0312,0 1.875,-0.5625 1.875,-1.25 z m -1050.7355,-4.11345 c 0.98492,-1.56142 0.82661,-2.58114 -0.62627,-4.03403 -2.57727,-2.57726 -6.13824,-1.09675 -6.13824,2.55205 0,4.49852 4.27144,5.43432 6.76451,1.48198 z m 150,0 c 0.98491,-1.56142 0.82662,-2.58114 -0.62627,-4.03403 -2.57727,-2.57726 -6.13824,-1.09674 -6.13824,2.55205 0,4.49852 4.27144,5.43432 6.76451,1.48198 z M -178.0357,-45.266443 c -8.98726,-0.95881 -30.98937,-7.13634 -41.51084,-11.65499 -13.44833,-5.77566 -21.0501,-10.5859 -34.85216,-22.05375 -26.33,-21.877037 -44.23929,-55.044637 -48.5013,-89.823307 -0.89581,-7.30989 -1.38037,-45.17874 -1.38356,-108.125 l -0.005,-96.875 -12.18613,-6.18349 c -6.70226,-3.40091 -20.06101,-10.48897 -29.68601,-15.75125 -9.625,-5.26226 -24.8125,-13.37472 -33.75,-18.02769 -42.9528,-22.36171 -74.29021,-39.72522 -79.05237,-43.80142 -3.37412,-2.8881 -6.9418,-7.9152 -9.97522,-14.0557 -4.51678,-9.1433 -4.72227,-10.1065 -4.71927,-22.12 0.003,-11.5019 0.33624,-13.2641 3.95565,-20.91 10.88084,-22.9853 34.7243,-35.3275 57.27718,-29.6486 3.00741,0.7573 26.97418,12.8521 53.25948,26.8774 26.28529,14.0253 48.05815,25.2338 48.38411,24.9078 0.32598,-0.3259 -1.31357,-3.7676 -3.64345,-7.6481 -6.57235,-10.9465 -17.11249,-19.6633 -33.38053,-27.606 -11.18016,-5.4585 -14.89967,-7.9484 -17.74814,-11.8806 -5.08702,-7.0224 -6.64287,-12.6783 -5.93014,-21.5575 1.10308,-13.7419 9.00958,-23.9811 22.17286,-28.7145 5.68361,-2.0438 8.63658,-2.2116 25.02195,-1.4214 10.21781,0.4927 25.2266,0.4866 33.35286,-0.013 l 14.77503,-0.9093 5.40582,-11.0293 c 8.73435,-17.8202 26.06047,-34.5657 42.44738,-41.0248 9.12137,-3.5953 23.933,-6.3535 34.2816,-6.3839 8.69542,-0.025 9.51816,-0.2899 17.8652,-5.7409 19.64031,-12.826 53.02561,-27.0121 87.829414,-37.3204 30.6569,-9.0801 83.1127003,-19.511 117.1706,-23.2994 7.5625,-0.8413 13.9479,-1.6805 14.1898,-1.8651 0.242,-0.1845 -0.4217,-3.0438 -1.4749,-6.354 -2.9059,-9.134 -4.9651,-23.8851 -4.1572,-29.7799 2.2664,-16.535 12.2432,-29.9745 28.0532,-37.7896 l 9.5061,-4.6989 86.919896,-0.3537 c 56.709,-0.2308 89.0232,0.097 92.9711,0.944 15.0598,3.2298 29.0243,14.3901 35.6221,28.4689 2.9045,6.1977 3.36,8.7444 3.2981,18.4408 -0.063,9.8183 -0.9273,14.834 -4.9562,28.75 -0.6809,2.3518 0.3576,2.632 17.5173,4.7275 43.4573,5.3069 91.4525,15.5512 127.4234,27.198 30.6468,9.9229 48.5486,17.8297 70.8729,31.3029 l 12.0357,7.2638 11.7143,0.2231 c 33.4266,0.6367 59.9563,17.817 74.4205,48.1937 l 5.4325,11.409 36.217,0.061 36.217,0.061 6.4265,3.4978 c 17.5574,9.5559 21.8344,32.175 9.2129,48.7227 -2.1085,2.7643 -7.6687,6.2825 -17.5567,11.1087 -11.3574,5.5434 -16.1537,8.7217 -22.2918,14.7717 -7.2591,7.155 -15.5369,18.952 -14.2213,20.2675 0.314,0.314 22.0771,-10.9043 48.3623,-24.9296 26.2853,-14.0253 50.2521,-26.1201 53.2595,-26.8774 22.4276,-5.6473 46.5052,6.7264 57.0861,29.3371 9.3694,20.0219 4.1638,45.5268 -11.9491,58.5451 -4.4271,3.5769 -120.7301,66.51345 -144.7855,78.34974 l -8.3844,4.12551 -0.4581,104.44536 c -0.403,91.88462 -0.7065,105.45447 -2.524,112.8362 -11.1549,45.30499 -37.5884,78.624447 -77.749,98.002767 -7.5772,3.65615 -19.6422,8.19162 -26.875,10.10285 l -13.125,3.46821 -344.375,0.14206 c -189.406296,0.0781 -346.34376,-0.068 -348.75001,-0.32467 z m 691.25001,-44.23028 c 17.715,-2.94692 36.9423,-13.364057 51.1703,-27.723457 15.285,-15.42609 25.0066,-35.85312 27.5216,-57.82831 0.8101,-7.07776 1.2994,-65.48901 1.3195,-157.5 0.034,-155.82455 -0.091,-152.34115 6.092,-169.89795 4.1722,-11.8473 12.4867,-25.1392 22.4006,-35.8106 l 9.2126,-9.9165 -465.3134,0 -465.31336,0 8.09426,8.4375 c 15.32156,15.9713 23.31379,30.7618 28.20021,52.1875 1.75913,7.7133 2.03172,26.819 2.30064,161.25005 0.346,172.95851 -0.34637,161.16652 10.82398,184.34426 5.6297,11.68129 7.60856,14.3857 18.33837,25.06231 9.74499,9.69669 14.16279,13.06178 23.27769,17.730917 19.66372,10.0728 19.83439,10.0974 75.62501,10.90117 89.647104,1.29154 637.3523,0.24325 646.25,-1.23689 z m -797.1261,-338.731907 c -0.5494,-0.51037 -32.30797,-17.62851 -70.57459,-38.04021 -75.44316,-40.2421 -72.55798,-39.0835 -76.09075,-30.5546 -1.10591,2.6699 -1.23915,4.572 -0.41209,5.8832 0.67223,1.0657 16.3774,10.0543 34.90038,19.9746 18.52298,9.9204 51.39689,27.545 73.05314,39.16584 l 39.375,21.12878 0.37391,-8.31482 c 0.20565,-4.57315 -0.0756,-8.73241 -0.625,-9.24279 z m 987.0403,-29.66251 c 31.9216,-17.0871 58.5955,-31.9492 59.2754,-33.0271 0.8446,-1.3389 0.7184,-3.2095 -0.3982,-5.9052 -3.5376,-8.5407 -0.5934,-9.7272 -76.7193,30.9191 l -70.1971,37.48079 -0.3693,8.9749 -0.3693,8.97488 15.3693,-8.17503 c 8.4531,-4.49628 41.4869,-22.15534 73.4085,-39.24234 z m -150.2267,-112.5767 c 17.4461,-0.2343 16.8619,0.2794 12.6092,-11.087 -3.6924,-9.869 -14.0464,-20.2229 -23.9153,-23.9154 l -7.2252,-2.7033 -368.6562,0 -368.65622,0 -7.17118,2.6831 c -12.48958,4.673 -24.15995,18.3555 -26.12207,30.6259 l -0.80621,5.0418 387.31538,-0.2198 c 213.0234,-0.1208 394.2059,-0.3122 402.6278,-0.4253 z m -88.1385,-61.4501 c -2.2417,-1.3669 -7.423,-3.8939 -11.5139,-5.6158 -46.5874,-19.6083 -116.2685,-34.5221 -192.5351,-41.2079 -30.9802,-2.7158 -160.4783,-2.7372 -189.999996,-0.031 -68.3666997,6.2663 -126.9098,17.589 -168.3443,32.5592 -14.811604,5.3514 -39.087504,15.1725 -40.301504,16.3046 -0.2865,0.2671 136.1198043,0.4835 303.125,0.481 303.575,-0.01 303.6448,-0.01 299.5698,-2.4899 z m -228.0226,-70.9431 c 0.6129,-1.2031 4.3367,-11.6624 8.2749,-23.2428 4.7545,-13.9805 6.9032,-22.0807 6.3947,-24.1068 -0.9975,-3.9742 -5.1907,-5.4629 -15.3881,-5.4629 l -8.2793,0 2.7357,2.5487 c 1.5046,1.4018 2.7357,3.5017 2.7357,4.6664 0,1.1647 -3.375,11.7898 -7.5,23.6113 -4.125,11.8215 -7.5,21.7798 -7.5,22.1295 0,0.7115 5.7476,1.5416 12.7685,1.8441 3.3041,0.1423 4.965,-0.4309 5.7579,-1.9875 z"
           style="fill:#000000"
           transform="matrix(0.32490784,0,0,0.32490784,562.29578,-831.06555)" />
        <path
           style="opacity:1;fill:#0fa4b2;fill-opacity:0.19634705;fill-rule:evenodd;stroke:#001d54;stroke-width:6.40179539;stroke-linecap:butt;stroke-linejoin:miter;stroke-miterlimit:4;stroke-dasharray:none;stroke-opacity:0.48858452"
           d="m -468.59602,-3.7940546 c 0,0 41.6544,0.1931904 53.03909,-14.1559104 11.3847,-14.349093 28.14839,-152.741295 62.35391,-168.214515 26.91624,-9.67033 47.38981,48.31891 77.64579,47.72988 30.25597,-0.58902 55.0468,-70.59356 94.80863,-63.60297 39.76181,6.9906 46.38766,151.535699 66.10627,175.94919 19.718607,24.413492 58.546454,22.5454204 58.546454,22.5454204"
           id="path4240"
           inkscape:connector-curvature="0"
           sodipodi:nodetypes="czczzzc" />
        <text
           sodipodi:linespacing="125%"
           id="text4292"
           y="-53.73592"
           x="-370.65195"
           style="font-style:normal;font-variant:normal;font-weight:normal;font-stretch:normal;font-size:8.71258259px;line-height:125%;font-family:Arial;-inkscape-font-specification:Arial;letter-spacing:0px;word-spacing:0px;fill:#000000;fill-opacity:1;stroke:none;stroke-width:1px;stroke-linecap:butt;stroke-linejoin:miter;stroke-opacity:1"
           xml:space="preserve"><tspan
             style="font-style:normal;font-variant:normal;font-weight:bold;font-stretch:normal;font-size:87.12581635px;font-family:Courier;-inkscape-font-specification:'Courier Bold'"
             y="-53.73592"
             x="-370.65195"
             id="tspan4294"
             sodipodi:role="line">iDEA</tspan></text>
        <path
           transform="matrix(0.32490784,0,0,0.32490784,547.20378,-439.83462)"
           style="fill:#000000"
           d="m -365.55326,-539.64614 c 0,0 -6.64287,-12.6783 -5.93014,-21.5575 1.10308,-13.7419 9.00958,-23.9811 22.17286,-28.7145 5.68361,-2.0438 8.63658,-2.2116 25.02195,-1.4214 10.21781,0.4927 25.2266,0.4866 33.35286,-0.013 l 14.77503,-0.9093 5.40582,-11.0293 c 8.73435,-17.8202 26.06047,-34.5657 42.44738,-41.0248 9.12137,-3.5953 23.933,-6.3535 34.2816,-6.3839 8.69542,-0.025 9.51816,-0.2899 17.8652,-5.7409 19.64031,-12.826 53.02561,-27.0121 87.829414,-37.3204 30.6569,-9.0801 83.1127003,-19.511 117.1706,-23.2994 7.5625,-0.8413 13.9479,-1.6805 14.1898,-1.8651 0.242,-0.1845 -0.4217,-3.0438 -1.4749,-6.354 -2.9059,-9.134 -4.9651,-23.8851 -4.1572,-29.7799 2.2664,-16.535 12.2432,-29.9745 28.0532,-37.7896 l 9.5061,-4.6989 86.919896,-0.3537 c 56.709,-0.2308 89.0232,0.097 92.9711,0.944 15.0598,3.2298 29.0243,14.3901 35.6221,28.4689 2.9045,6.1977 3.36,8.7444 3.2981,18.4408 -0.063,9.8183 -0.9273,14.834 -4.9562,28.75 -0.6809,2.3518 0.3576,2.632 17.5173,4.7275 43.4573,5.3069 91.4525,15.5512 127.4234,27.198 30.6468,9.9229 48.5486,17.8297 70.8729,31.3029 l 12.0357,7.2638 11.7143,0.2231 c 33.4266,0.6367 59.9563,17.817 74.4205,48.1937 l 5.4325,11.409 c 24.14467,0.0407 48.28933,0.0813 72.434,0.122 l 6.4265,3.4978 c 17.5574,9.5559 21.8344,32.175 9.2129,48.7227 -1061.85457,-1.0086 0,0 -1061.85457,-1.0086 z m 918.45507,-30.8217 c 17.4461,-0.2343 16.8619,0.2794 12.6092,-11.087 -3.6924,-9.869 -14.0464,-20.2229 -23.9153,-23.9154 l -7.2252,-2.7033 -368.6562,0 -368.65622,0 -7.17118,2.6831 c -12.48958,4.673 -24.15995,18.3555 -26.12207,30.6259 l -0.80621,5.0418 387.31538,-0.2198 c 213.0234,-0.1208 394.2059,-0.3122 402.6278,-0.4253 z m -88.1385,-61.4501 c -2.2417,-1.3669 -7.423,-3.8939 -11.5139,-5.6158 -46.5874,-19.6083 -116.2685,-34.5221 -192.5351,-41.2079 -30.9802,-2.7158 -160.4783,-2.7372 -189.999996,-0.031 -68.3666997,6.2663 -126.9098,17.589 -168.3443,32.5592 -14.811604,5.3514 -39.087504,15.1725 -40.301504,16.3046 -0.2865,0.2671 136.1198043,0.4835 303.125,0.481 303.575,-0.01 303.6448,-0.01 299.5698,-2.4899 z m -228.0226,-70.9431 c 0.6129,-1.2031 4.3367,-11.6624 8.2749,-23.2428 4.7545,-13.9805 6.9032,-22.0807 6.3947,-24.1068 -0.9975,-3.9742 -5.1907,-5.4629 -15.3881,-5.4629 l -8.2793,0 2.7357,2.5487 c 1.5046,1.4018 2.7357,3.5017 2.7357,4.6664 0,1.1647 -3.375,11.7898 -7.5,23.6113 -4.125,11.8215 -7.5,21.7798 -7.5,22.1295 0,0.7115 5.7476,1.5416 12.7685,1.8441 3.3041,0.1423 4.965,-0.4309 5.7579,-1.9875 z"
           id="path4166"
           inkscape:connector-curvature="0"
           clip-path="url(#clipPath4224)"
           sodipodi:nodetypes="csssccsscssccccscscscsssscssccsccssscccsscssccscscccccscsccssscc" />
        <path
           id="path4168"
           style="fill:#000000"
           d="m 771.28154,-262.95287 c -5.4696,2.55638 -9.36166,6.29025 -11.86339,11.3845 0.10202,0.102 7.17302,-3.5429 15.71329,-8.0998 8.5403,-4.557 16.3273,-8.4867 17.30443,-8.7327 7.2869,-1.8349 15.1099,2.1854 18.54772,9.5318 3.04419,6.5053 1.35285,14.7921 -3.88236,19.0218 -1.4384,1.1622 -39.22616,21.6107 -47.04194,25.4564 l -2.72416,1.3405 -0.14884,33.9351 c -0.13094,29.854 -0.22955,34.263 -0.82007,36.6613 -3.62431,14.72 -12.21276,25.5457 -25.26126,31.8419 -2.46189,1.1879 -6.3819,2.6615 -8.7319,3.2825 l -4.26441,1.1269 -111.89014,0.046 c -61.53959,0.025 -112.5298,-0.022 -113.31161,-0.1055 l 3.8e-4,-0.004 c -2.92003,-0.3115 -10.06869,-2.3186 -13.4872,-3.7868 -4.36946,-1.8765 -6.83934,-3.4394 -11.32374,-7.1654 -8.55482,-7.108 -14.37369,-17.8845 -15.75845,-29.1843 -0.29106,-2.3751 -0.44849,-14.6789 -0.44953,-35.1307 l -0.002,-31.4754 -3.95937,-2.0091 c -2.17762,-1.105 -6.51798,-3.4079 -9.64522,-5.1177 -3.12724,-1.7097 -8.06178,-4.3455 -10.96564,-5.8573 -13.9557,-7.2655 -24.13747,-12.9071 -25.68473,-14.2315 -1.09628,-0.9383 -2.25545,-2.5717 -3.24103,-4.5668 -1.46754,-2.9707 -1.5343,-3.2836 -1.53333,-7.1869 9.8e-4,-3.7371 0.10925,-4.3096 1.28522,-6.7939 3.53527,-7.4681 11.2822,-11.4781 18.60981,-9.633 0.97713,0.246 8.76412,4.1757 17.30442,8.7327 8.5403,4.5569 15.61447,8.1986 15.72038,8.0927 -2.11496,-5.30814 -7.9406,-9.42312 -12.02939,-11.4543 -22.92912,-15.80355 18.34859,-17.96778 27.42382,13.0668 0.72145,2.46713 0.66012,8.7137 0.7475,52.3914 0.11242,56.1956 -0.11254,52.3643 3.51679,59.8949 1.82914,3.7953 2.47208,4.674 5.95828,8.1429 3.16623,3.1506 4.60161,4.2439 7.56311,5.7609 6.38889,3.2728 6.44435,3.2808 24.57116,3.5419 29.12704,0.4197 207.08076,0.079 209.97169,-0.4019 5.75574,-0.9574 12.00284,-4.342 16.62563,-9.0075 4.96621,-5.0121 8.12484,-11.649 8.94198,-18.7889 0.26321,-2.2996 0.42219,-21.2779 0.42872,-51.173 0.0111,-50.6286 0.53301,-49.32888 1.97934,-55.2012 5.8651,-23.81321 52.54598,-24.70296 25.80604,-8.1453 z m -312.77423,32.2593 c -0.17851,-0.1658 -10.49711,-5.7276 -22.93024,-12.3596 -24.51207,-13.0749 -23.57466,-12.6985 -24.72248,-9.9274 -0.35932,0.8675 -0.40261,1.4855 -0.13389,1.9115 0.21841,0.3463 5.32114,3.2667 11.33941,6.4899 6.01826,3.2232 16.69925,8.9496 23.73553,12.7253 l 12.79325,6.8649 0.12149,-2.7016 c 0.0668,-1.4858 -0.0246,-2.8372 -0.20307,-3.003 z m 320.69713,-9.6376 c 10.37158,-5.5517 19.03814,-10.3805 19.25904,-10.7308 0.27442,-0.435 0.23342,-1.0427 -0.12938,-1.9186 -1.14939,-2.7749 -0.1928,-3.1604 -24.9267,10.0459 l -22.80759,12.1778 -0.11999,2.916 -0.11998,2.916 4.9936,-2.6561 c 2.74648,-1.4609 13.47942,-7.1985 23.851,-12.7502 z"
           inkscape:connector-curvature="0"
           sodipodi:nodetypes="ccscscccsssscscccssccscscscccsccsssscssscssccsscsscccscssccccs" />
        <path
           style="fill:#000000"
           d="m -374.04443,8.0210145 c -2.92003,-0.3115 -10.06869,-2.3186 -13.4872,-3.7868 -4.36946,-1.8765 -6.83934,-3.43939995 -11.32374,-7.1654 -8.55482,-7.1079995 -14.37369,-17.8844995 -15.75845,-29.1842995 -0.29106,-2.3751 -0.44849,-14.6789 -0.44953,-35.1307 l -0.002,-31.4754 -3.95937,-2.009105 c -2.17762,-1.105 -6.51798,-3.4079 -9.64522,-5.1177 -3.12724,-1.7097 -8.06178,-4.3455 -10.96564,-5.8573 -13.9557,-7.2655 -24.13747,-12.9071 -25.68473,-14.2315 -1.09628,-0.9383 -2.25545,-2.5717 -3.24103,-4.5668 -1.46754,-2.9707 -1.5343,-3.2836 -1.53333,-7.1869 9.8e-4,-3.7371 0.10925,-4.3096 1.28522,-6.7939 3.53527,-7.4681 11.2822,-11.4781 18.60981,-9.633 0.97713,0.246 8.76412,4.1757 17.30442,8.7327 8.5403,4.5569 15.61447,8.1986 15.72038,8.0927 0.10591,-0.1059 -0.42679,-1.2241 -1.18379,-2.4849 -2.13541,-3.5566 -5.55998,-6.3888 -10.8456,-8.9694 -3.63252,-1.7735 -4.84101,-2.5825 -5.76651,-3.8601 -1.65281,-2.2817 -2.15832,-4.1193 -1.92674,-7.0042 0.3584,-4.4649 2.92728,-7.7917 7.20413,-9.3296 1.84665,-0.664 2.80609,-0.7186 8.12983,-0.4618 3.31985,0.1601 8.19632,0.1581 10.83661,0 303.9125,0.1405 252.93691,0.054 303.9125,0.1405 l 11.76718,0.02 2.08802,1.1365 c 5.70454,3.1048 7.09417,10.4539 2.99335,15.8304 -0.68507,0.8981 -2.49162,2.0412 -5.70431,3.6093 -3.69011,1.8011 -5.24847,2.8337 -7.24278,4.7994 -2.35854,2.3247 -5.04806,6.1577 -4.62061,6.5851 0.10202,0.102 7.17302,-3.5429 15.71329,-8.0998 8.5403,-4.557 16.3273,-8.4867 17.30443,-8.7327 7.2869,-1.8349 15.1099,2.1854 18.54772,9.5318 3.04419,6.5053 1.35285,14.7921 -3.88236,19.0218 -1.4384,1.1622 -39.22616,21.6107 -47.04194,25.4564 l -2.72416,1.340505 -0.14884,33.9351 c -0.13094,29.854 -0.22955,34.263 -0.82007,36.6613 -3.62431,14.72 -12.21276,25.5456995 -25.26126,31.8418995 -2.46189,1.1879 -6.3819,2.6615 -8.7319,3.2825 l -4.26441,1.1269 -111.89014,0.046 c -61.53959,0.025 -112.5298,-0.022 -113.31161,-0.1055 z m 224.59255,-14.3708 c 5.75574,-0.9574 12.00284,-4.3419995 16.62563,-9.0074995 4.96621,-5.0121 8.12484,-11.649 8.94198,-18.7889 0.26321,-2.2996 0.42219,-21.2779 0.42872,-51.173 0.0111,-50.628605 -0.0296,-49.496805 1.97934,-55.201205 1.35558,-3.8492 4.05702,-8.1679 7.27813,-11.6351 l 2.99324,-3.2219 -151.18397,0 -151.18396,0 2.62989,2.7414 c 4.9781,5.1892 7.57484,9.9947 9.16247,16.9561 0.57156,2.5061 0.66012,8.7137 0.7475,52.391405 0.11242,56.1956 -0.11254,52.3643 3.51679,59.8949 1.82914,3.7953 2.47208,4.674 5.95828,8.1429 3.16623,3.1506 4.60161,4.2439 7.56311,5.7608995 6.38889,3.2728 6.44435,3.2808 24.57116,3.5419 29.12704,0.4197 207.08076,0.079 209.97169,-0.4019 z M -408.4444,-116.40639 c -0.17851,-0.1658 -10.49711,-5.7276 -22.93024,-12.3596 -24.51207,-13.0749 -23.57466,-12.6985 -24.72248,-9.9274 -0.35932,0.8675 -0.40261,1.4855 -0.13389,1.9115 0.21841,0.3463 5.32114,3.2667 11.33941,6.4899 6.01826,3.2232 16.69925,8.9496 23.73553,12.7253 l 12.79325,6.8649 0.12149,-2.7016 c 0.0668,-1.4858 -0.0246,-2.8372 -0.20307,-3.003 z m 320.69713,-9.6376 c 10.37158,-5.5517 19.03814,-10.3805 19.25904,-10.7308 0.27442,-0.435 0.23342,-1.0427 -0.12938,-1.9186 -1.14939,-2.7749 -0.1928,-3.1604 -24.9267,10.0459 l -22.80759,12.1778 -0.11999,2.916 -0.11998,2.916 4.9936,-2.6561 c 2.74648,-1.4609 13.47942,-7.1985 23.851,-12.7502 z"
           id="path4162"
           inkscape:connector-curvature="0"
           clip-path="none"
           sodipodi:nodetypes="ccssccscscscccsssscscccccccsscscscccsssscsccsscssscccssssscsscsscsscccsccsccccs" />
        <path
           sodipodi:nodetypes="csscssccccscscscsssscscccssscccsscssccscscccccscsccssscc"
           clip-path="url(#clipPath4224)"
           inkscape:connector-curvature="0"
           id="path4284"
           d="m -288.49345,-539.64614 c 0,0 11.82571,-42.43 17.73857,-63.645 5.32812,-19.11699 26.06047,-34.5657 42.44738,-41.0248 9.12137,-3.5953 23.933,-6.3535 34.2816,-6.3839 8.69542,-0.025 9.51816,-0.2899 17.8652,-5.7409 19.64031,-12.826 53.02561,-27.0121 87.829414,-37.3204 30.6569,-9.0801 83.1127003,-19.511 117.1706,-23.2994 7.5625,-0.8413 13.9479,-1.6805 14.1898,-1.8651 0.242,-0.1845 -0.4217,-3.0438 -1.4749,-6.354 -2.9059,-9.134 -4.9651,-23.8851 -4.1572,-29.7799 2.2664,-16.535 12.2432,-29.9745 28.0532,-37.7896 l 9.5061,-4.6989 86.919896,-0.3537 c 56.709,-0.2308 89.0232,0.097 92.9711,0.944 15.0598,3.2298 29.0243,14.3901 35.6221,28.4689 2.9045,6.1977 3.36,8.7444 3.2981,18.4408 -0.063,9.8183 -0.9273,14.834 -4.9562,28.75 -0.6809,2.3518 0.3576,2.632 17.5173,4.7275 43.4573,5.3069 91.4525,15.5512 127.4234,27.198 30.6468,9.9229 48.5486,17.8297 70.8729,31.3029 l 12.0357,7.2638 11.7143,0.2231 c 33.4266,0.6367 59.9563,17.817 74.4205,48.1937 9.98076,19.74654 12.6894,42.34885 17.70936,63.7515 z m 841.39526,-30.8217 c 17.4461,-0.2343 16.8619,0.2794 12.6092,-11.087 -3.6924,-9.869 -14.0464,-20.2229 -23.9153,-23.9154 l -7.2252,-2.7033 -368.6562,0 -368.65622,0 -7.17118,2.6831 c -12.48958,4.673 -24.15995,18.3555 -26.12207,30.6259 l -0.80621,5.0418 387.31538,-0.2198 c 213.0234,-0.1208 394.2059,-0.3122 402.6278,-0.4253 z m -88.1385,-61.4501 c -2.2417,-1.3669 -7.423,-3.8939 -11.5139,-5.6158 -46.5874,-19.6083 -116.2685,-34.5221 -192.5351,-41.2079 -30.9802,-2.7158 -160.4783,-2.7372 -189.999996,-0.031 -68.3666997,6.2663 -126.9098,17.589 -168.3443,32.5592 -14.811604,5.3514 -39.087504,15.1725 -40.301504,16.3046 -0.2865,0.2671 136.1198043,0.4835 303.125,0.481 303.575,-0.01 303.6448,-0.01 299.5698,-2.4899 z m -228.0226,-70.9431 c 0.6129,-1.2031 4.3367,-11.6624 8.2749,-23.2428 4.7545,-13.9805 6.9032,-22.0807 6.3947,-24.1068 -0.9975,-3.9742 -5.1907,-5.4629 -15.3881,-5.4629 l -8.2793,0 2.7357,2.5487 c 1.5046,1.4018 2.7357,3.5017 2.7357,4.6664 0,1.1647 -3.375,11.7898 -7.5,23.6113 -4.125,11.8215 -7.5,21.7798 -7.5,22.1295 0,0.7115 5.7476,1.5416 12.7685,1.8441 3.3041,0.1423 4.965,-0.4309 5.7579,-1.9875 z"
           style="fill:#000000"
           transform="matrix(0.32490784,0,0,0.32490784,542.56009,-190.23624)" />
        <path
           style="fill:#000000"
           d="m 120.91717,-849.91704 c -17.151,-2.65251 -35.4716,-11.86147 -37.9943,-19.09805 -1.1176,-3.2061 -6.2137,-9.2558 -11.3245,-13.44376 -10.2151,-8.37049 -11.0437,-11.60158 -5.7052,-22.24607 4.6926,-9.35656 4.7004,-26.92929 0.015,-34.07982 -5.0186,-7.65933 -4.4927,-9.31652 1.2456,-3.92562 3.9259,3.68818 5.4057,4.05769 7.7793,1.94244 2.442,-2.17632 2.5202,-2.06291 0.4684,0.67966 -1.7923,2.39581 -1.8729,5.4277 -0.296,11.13877 2.4867,9.00605 0.067,18.77945 -6.8161,27.5298 -4.1943,5.3321 -3.9273,13.20243 0.358,10.55398 1.1926,-0.73708 1.9085,-0.0878 1.5909,1.44293 -0.9111,4.39138 24.9779,16.14082 43.2135,19.61194 39.433,7.50604 74.6078,1.92405 102.263,-16.22843 l 9.4567,-6.20727 -6.8299,6.4514 c -3.7564,3.54829 -6.8298,8.30027 -6.8298,10.56001 0,2.25971 -0.9611,4.70257 -2.1358,5.42856 -1.1747,0.72598 -1.6577,2.09355 -1.0734,3.03899 0.5844,0.94546 -0.5823,1.58938 -2.5926,1.43093 -2.0102,-0.15845 -3.4711,0.73636 -3.2463,1.9885 0.2247,1.25215 -0.721,2.32845 -2.1015,2.39179 -1.3807,0.0634 -8.6571,2.47634 -16.1699,5.36222 -15.6731,6.0204 -44.3938,8.59725 -63.2754,5.6771 z m 23.8723,-3.43979 c -1.4447,-0.58298 -3.8089,-0.58298 -5.2537,0 -1.4448,0.58298 -0.2627,1.05997 2.6269,1.05997 2.8895,0 4.0716,-0.47699 2.6268,-1.05997 z m 33.3859,-4.46669 c -1.5161,-0.50536 -3.7557,0.0803 -4.9769,1.30148 -1.5595,1.55946 -0.739,1.83295 2.7565,0.91886 2.8417,-0.74311 3.7943,-1.6957 2.2204,-2.22034 z m -34.962,-2.67806 c -12.714,-0.85255 -25.4806,-2.10153 -28.3702,-2.77552 -2.8895,-0.67397 -1.471,0.10423 3.1523,1.72957 5.1455,1.80882 16.1496,2.88537 28.3702,2.77553 l 19.9642,-0.17947 -23.1165,-1.55008 z m 35.7254,-1.97095 c 5.3551,-2.30115 -0.1698,-2.30115 -7.3552,0 -4.2234,1.35259 -4.4295,1.69465 -1.0508,1.74431 2.3117,0.034 6.0944,-0.75095 8.406,-1.74431 z m -112.4299,-32.31585 c 0,-0.43638 1.3343,-1.9008 2.9651,-3.25427 2.2705,-1.88435 3.3312,-1.86857 4.5277,0.0675 0.9906,1.60283 0.6745,1.97939 -0.8636,1.02876 -1.3345,-0.82479 -2.4262,-0.49807 -2.4262,0.72596 0,1.22404 -0.9457,2.22553 -2.1015,2.22553 -1.1559,0 -2.1015,-0.35705 -2.1015,-0.79344 z m 152.8636,-3.58915 c -4.7554,-2.76915 -9.962,-15.241 -9.962,-23.86281 0,-9.62675 5.7046,-27.49258 9.8568,-30.87002 3.1441,-2.55741 3.3577,-2.40961 1.914,1.32431 -2.9496,7.62822 -3.8296,12.45742 -4.787,26.26869 -0.7473,10.78048 -0.081,15.32081 3.1633,21.54032 2.2607,4.33433 3.9758,7.85185 3.8114,7.8167 -0.1643,-0.0351 -1.9628,-1.03289 -3.9965,-2.21719 z m -200.1112,-47.36824 c -1.89,-1.88994 -3.1308,-5.88055 -2.777,-8.93135 0.5324,-4.59129 2.0839,-5.81805 9.2643,-7.32495 6.9021,-1.44852 10.5749,-0.94744 18.3881,2.5087 5.3697,2.37531 9.7632,5.34187 9.7632,6.59237 0,1.41978 -2.3284,1.06956 -6.2001,-0.93258 -6.8692,-3.5522 -22.281,-4.32558 -24.2037,-1.21457 -0.677,1.09541 0.6247,1.63429 2.8927,1.19751 4.9576,-0.95474 9.5445,3.92114 7.848,8.34231 -1.6139,4.20575 -10.676,4.06207 -14.9755,-0.23744 z m 10.7608,-2.24837 c -2.2383,-2.23834 -7.8244,-2.63075 -6.4799,-0.45519 0.6517,1.05436 2.7051,1.91702 4.5633,1.91702 1.8581,0 2.7206,-0.65782 1.9166,-1.46183 z m 73.2629,0.3665 c -16.3598,-2.9782 -40.9791,-12.65254 -40.9791,-16.10303 0,-2.31832 2.9083,-2.16811 5.3588,0.27678 3.5252,3.51717 17.7576,8.68057 17.7576,6.4423 0,-1.17133 -1.781,-2.12969 -3.9579,-2.12969 -2.2377,0 -4.4533,-1.89447 -5.0977,-4.35895 -2.4558,-9.39076 12.6811,-16.31284 30.4581,-13.92844 13.7195,1.84016 13.7042,5.00312 -0.019,4.01045 -8.9242,-0.64552 -14.2263,0.10449 -19.305,2.73076 -6.0866,3.14754 -6.529,3.88516 -3.3853,5.6445 1.989,1.1131 9.0073,2.43023 15.5961,2.92696 11.7413,0.88518 11.8542,0.84201 5.6752,-2.16927 -5.4318,-2.64714 -5.6738,-3.08554 -1.748,-3.1672 7.2257,-0.15032 11.2047,2.13472 11.2047,6.43453 0,3.0657 -1.5263,3.97815 -6.6547,3.97815 -3.6601,0 -6.1098,0.5449 -5.4438,1.21089 1.701,1.70108 45.401,1.6424 56.4995,-0.0759 11.0656,-1.71318 35.7184,-9.3342 38.503,-11.90257 1.1727,-1.08167 -1.4284,-1.89138 -6.3045,-1.96252 -4.5655,-0.0666 -12.0836,-0.98298 -16.7069,-2.03637 -6.1407,-1.39914 -2.5277,-1.642 13.4072,-0.90122 25.6601,1.19289 31.0331,2.29714 32.7331,6.72728 2.1825,5.68765 -6.8128,12.51068 -21.613,16.39372 -19.2149,5.0413 -73.014,6.13928 -95.9781,1.95882 z m -5.7791,-8.75927 c -2.0227,-0.52858 -5.3325,-0.52858 -7.3552,0 -2.0227,0.52859 -0.3678,0.96106 3.6776,0.96106 4.0454,0 5.7003,-0.43247 3.6776,-0.96106 z m 112.8565,-3.09169 c 2.9439,-1.34135 5.3526,-3.13152 5.3526,-3.97816 0,-3.56081 -13.5152,-5.62319 -15.5262,-2.36926 -0.5851,0.94669 1.7233,1.31219 5.1297,0.81223 7.3171,-1.07392 8.1941,2.16389 1.4651,5.40914 -6.3935,3.08348 -3.1619,3.1973 3.5788,0.12605 z m 28.5659,12.01231 c -2.0148,-2.42768 -1.6671,-3.76508 1.7365,-6.67934 5.641,-4.82995 3.7758,-7.22286 -4.5417,-5.82678 -5.9735,1.00263 -6.3429,0.79938 -3.2165,-1.7701 4.5056,-3.70298 22.1727,-4.68604 26.071,-1.4507 4.5741,3.79612 3.5393,9.60374 -2.5669,14.40687 -6.4525,5.07553 -13.899,5.63779 -17.4824,1.32005 z m 10.6979,-4.92449 c -1.5161,-0.50537 -3.7557,0.0803 -4.9769,1.30148 -1.5595,1.55945 -0.739,1.83295 2.7566,0.91885 2.8416,-0.74311 3.7942,-1.6957 2.2203,-2.22033 z m -188.3711,2.14867 c -1.1558,-0.84917 -2.4299,-3.86385 -2.8313,-6.69928 -0.6365,-4.49626 -0.3036,-4.80165 2.6038,-2.38876 1.8334,1.52163 2.7499,3.71084 2.0367,4.86492 -0.7133,1.15409 0.01,2.9238 1.5992,3.9327 1.5929,1.0089 1.9504,1.83436 0.7946,1.83436 -1.1558,0 -3.0471,-0.69477 -4.203,-1.54394 z m 78.3884,-18.88127 c -12.0898,-12.92185 -15.3427,-28.10987 -8.7991,-41.08352 1.8657,-3.699 8.8256,-14.2909 15.4664,-23.5374 16.3319,-22.7403 18.9683,-28.4495 18.9683,-41.0759 0,-14.5288 -4.8837,-22.3861 -17.8627,-28.7386 -9.096,-4.452 -9.5874,-4.9845 -3.6584,-3.9637 14.9007,2.5655 25.7241,16.2603 25.7241,32.5487 0,12.4906 -5.5492,24.5091 -19.3565,41.9226 -22.7195,28.6532 -24.6833,39.1884 -11.0102,59.06556 8.2595,12.00727 8.397,13.27267 0.5281,4.86226 z m 2.8546,-21.48149 c -4.2331,-12.14303 3.2958,-28.58033 20.4811,-44.71513 16.4444,-15.4391 21.793,-25.8774 20.867,-40.7242 -0.6905,-11.0713 0.7431,-14.5589 3.2738,-7.9641 2.3506,6.1257 1.3074,21.9526 -1.963,29.7797 -1.7812,4.263 -10.1465,14.8714 -18.5896,23.5743 -18.5925,19.1645 -20.9379,23.3149 -20.4803,36.24217 0.4107,11.60413 -0.525,12.59671 -3.589,3.80726 z m -27.6549,-82.01713 c -2.3116,-2.3116 -4.1994,-6.8036 -4.1951,-9.9821 0.01,-7.2529 6.6505,-18.3561 13.014,-21.7596 4.0176,-2.1487 3.6793,-1.2656 -1.989,5.1927 -7.7449,8.8244 -9.6971,22.8976 -3.5057,25.2734 10.0717,3.8649 16.111,-0.6994 10.016,-7.5698 -2.647,-2.9838 -2.9371,-4.0759 -0.911,-3.43 1.6348,0.5211 4.2777,2.9136 5.8732,5.3165 6.1818,9.3102 -9.854,15.4073 -18.3024,6.9589 z"
           id="path4206"
           inkscape:connector-curvature="0" />
        <path
           inkscape:connector-curvature="0"
           id="path4208"
           d="m -101.06874,-219.68526 c 4.322485,-10.98625 -2.33929,-25.8577 -19.88749,-40.45542 -16.79167,-13.96837 -23.27933,-23.41226 -22.33378,-36.84472 0.70508,-10.01658 -0.75879,-13.1719 -3.34293,-7.20539 -2.40024,5.54216 -2.77157,19.86132 0.56787,26.94278 1.81882,3.85687 9.95033,13.65994 18.57172,21.53375 18.98513,17.33884 23.22707,20.88868 22.75981,32.58443 -0.41937,10.49869 0.53608,11.3967 3.6648,3.44457 z m 24.844491,-75.35796 c -10.284387,3.4967 -16.451216,-0.63278 -10.227508,-6.84872 2.702901,-2.69958 2.999122,-3.68761 0.930238,-3.10325 -1.669319,0.47151 -4.368036,2.63603 -5.997226,4.81002 -6.31235,8.4233 10.062088,13.93958 18.6889,6.29602 2.360426,-2.09143 4.288088,-6.15546 4.283698,-9.03118 -0.01024,-6.56201 -6.258415,-19.63524 -23.548961,-21.11566 -25.398202,-2.1746 -36.527472,13.28234 -36.527472,28.01908 0,11.30066 5.66638,22.17429 19.76526,37.92886 23.199275,25.9236 23.973207,35.45522 10.011361,53.43882 -8.433921,10.86342 -7.342981,12.00826 0.692094,4.39906 12.345108,-11.69087 16.692818,-25.84247 10.011037,-37.5802 -1.905097,-3.34665 -8.601518,-12.92949 -15.382562,-21.2952 -16.67678,-20.57394 -20.80543,-25.32881 -20.80543,-36.75244 0,-13.14473 5.96106,-27.05326 32.399184,-23.59515 23.096139,3.02097 22.029543,22.28044 15.707387,24.42994 z"
           style="fill:#000000"
           sodipodi:nodetypes="ssscsssssscsscssssssssss" />
      </g>
      <flowRoot
         xml:space="preserve"
         id="flowRoot4296"
         style="font-style:normal;font-variant:normal;font-weight:normal;font-stretch:normal;font-size:20px;line-height:125%;font-family:Arial;-inkscape-font-specification:Arial;letter-spacing:0px;word-spacing:0px;fill:#000000;fill-opacity:1;stroke:none;stroke-width:1px;stroke-linecap:butt;stroke-linejoin:miter;stroke-opacity:1"
         transform="translate(-470.2857,-1019.9137)"><flowRegion
           id="flowRegion4298"><rect
             id="rect4300"
             width="5706.25"
             height="3900"
             x="-1718.75"
             y="-2071.4741" /></flowRegion><flowPara
           id="flowPara4302" /></flowRoot>    </g>
  </g>
</svg>
